GRF_file
version=1
nRows=10
nColumns=2
inDegrees=no
range 1 10
endheader
time	force
1	0.806284690578551
2	-0.925068826771143
3	0.930804384795192
4	0.0911570966803956
5	-0.841688124116904
6	-0.933766743497435
7	-0.116132141146798
8	2.77662969040334
9	0.836967287045934
10	-0.130700657014138
